<mxfile host="app.diagrams.net" agent="Mozilla/5.0 (Macintosh; Intel Mac OS X 10_15_7) AppleWebKit/537.36 (KHTML, like Gecko) Chrome/137.0.0.0 Safari/537.36" version="27.1.4">
  <diagram name="Page-1" id="APAhfjn8cSoEAcbPUG3s">
    <mxGraphModel dx="925" dy="555" grid="1" gridSize="10" guides="1" tooltips="1" connect="1" arrows="1" fold="1" page="1" pageScale="1" pageWidth="827" pageHeight="1169" math="0" shadow="0">
      <root>
        <mxCell id="0" />
        <mxCell id="1" parent="0" />
        <mxCell id="s0BPI6kT1dO3Of0_2QOO-3" style="edgeStyle=orthogonalEdgeStyle;rounded=0;orthogonalLoop=1;jettySize=auto;html=1;entryX=0.5;entryY=0;entryDx=0;entryDy=0;" edge="1" parent="1" source="s0BPI6kT1dO3Of0_2QOO-1" target="s0BPI6kT1dO3Of0_2QOO-2">
          <mxGeometry relative="1" as="geometry" />
        </mxCell>
        <mxCell id="s0BPI6kT1dO3Of0_2QOO-1" value="Queue Consumer" style="rounded=1;whiteSpace=wrap;html=1;" vertex="1" parent="1">
          <mxGeometry x="240" y="80" width="120" height="60" as="geometry" />
        </mxCell>
        <mxCell id="s0BPI6kT1dO3Of0_2QOO-20" style="edgeStyle=orthogonalEdgeStyle;rounded=0;orthogonalLoop=1;jettySize=auto;html=1;entryX=0.5;entryY=0;entryDx=0;entryDy=0;" edge="1" parent="1" source="s0BPI6kT1dO3Of0_2QOO-2" target="s0BPI6kT1dO3Of0_2QOO-5">
          <mxGeometry relative="1" as="geometry" />
        </mxCell>
        <mxCell id="s0BPI6kT1dO3Of0_2QOO-2" value="Consume message from queue" style="rounded=1;whiteSpace=wrap;html=1;" vertex="1" parent="1">
          <mxGeometry x="240" y="160" width="120" height="60" as="geometry" />
        </mxCell>
        <mxCell id="s0BPI6kT1dO3Of0_2QOO-13" style="edgeStyle=orthogonalEdgeStyle;rounded=0;orthogonalLoop=1;jettySize=auto;html=1;exitX=0.5;exitY=1;exitDx=0;exitDy=0;" edge="1" parent="1" source="s0BPI6kT1dO3Of0_2QOO-5" target="s0BPI6kT1dO3Of0_2QOO-7">
          <mxGeometry relative="1" as="geometry" />
        </mxCell>
        <mxCell id="s0BPI6kT1dO3Of0_2QOO-14" value="Yes" style="edgeLabel;html=1;align=center;verticalAlign=middle;resizable=0;points=[];" vertex="1" connectable="0" parent="s0BPI6kT1dO3Of0_2QOO-13">
          <mxGeometry x="0.1087" relative="1" as="geometry">
            <mxPoint as="offset" />
          </mxGeometry>
        </mxCell>
        <mxCell id="s0BPI6kT1dO3Of0_2QOO-5" value="Is queue empty" style="rhombus;whiteSpace=wrap;html=1;" vertex="1" parent="1">
          <mxGeometry x="240" y="240" width="120" height="80" as="geometry" />
        </mxCell>
        <mxCell id="s0BPI6kT1dO3Of0_2QOO-15" style="edgeStyle=orthogonalEdgeStyle;rounded=0;orthogonalLoop=1;jettySize=auto;html=1;exitX=0.5;exitY=1;exitDx=0;exitDy=0;entryX=1;entryY=0.5;entryDx=0;entryDy=0;" edge="1" parent="1" source="s0BPI6kT1dO3Of0_2QOO-7" target="s0BPI6kT1dO3Of0_2QOO-1">
          <mxGeometry relative="1" as="geometry">
            <Array as="points">
              <mxPoint x="480" y="480" />
              <mxPoint x="480" y="110" />
            </Array>
          </mxGeometry>
        </mxCell>
        <mxCell id="s0BPI6kT1dO3Of0_2QOO-16" value="Yes" style="edgeLabel;html=1;align=center;verticalAlign=middle;resizable=0;points=[];" vertex="1" connectable="0" parent="s0BPI6kT1dO3Of0_2QOO-15">
          <mxGeometry x="-0.027" y="1" relative="1" as="geometry">
            <mxPoint as="offset" />
          </mxGeometry>
        </mxCell>
        <mxCell id="s0BPI6kT1dO3Of0_2QOO-18" style="edgeStyle=orthogonalEdgeStyle;rounded=0;orthogonalLoop=1;jettySize=auto;html=1;entryX=0.5;entryY=0;entryDx=0;entryDy=0;" edge="1" parent="1" source="s0BPI6kT1dO3Of0_2QOO-7" target="s0BPI6kT1dO3Of0_2QOO-17">
          <mxGeometry relative="1" as="geometry" />
        </mxCell>
        <mxCell id="s0BPI6kT1dO3Of0_2QOO-19" value="No" style="edgeLabel;html=1;align=center;verticalAlign=middle;resizable=0;points=[];" vertex="1" connectable="0" parent="s0BPI6kT1dO3Of0_2QOO-18">
          <mxGeometry x="0.2321" y="-2" relative="1" as="geometry">
            <mxPoint as="offset" />
          </mxGeometry>
        </mxCell>
        <mxCell id="s0BPI6kT1dO3Of0_2QOO-7" value="Is infinite task processing enabled?" style="rhombus;whiteSpace=wrap;html=1;" vertex="1" parent="1">
          <mxGeometry x="340" y="400" width="120" height="80" as="geometry" />
        </mxCell>
        <mxCell id="s0BPI6kT1dO3Of0_2QOO-17" value="Exit" style="ellipse;whiteSpace=wrap;html=1;" vertex="1" parent="1">
          <mxGeometry x="340" y="560" width="120" height="80" as="geometry" />
        </mxCell>
      </root>
    </mxGraphModel>
  </diagram>
</mxfile>
